<svg width="33" height="46" viewBox="0 0 33 46" fill="none" xmlns="http://www.w3.org/2000/svg">
<path d="M16.5 21.875C15.0082 21.875 13.5774 21.2824 12.5225 20.2275C11.4676 19.1726 10.875 17.7418 10.875 16.25C10.875 14.7582 11.4676 13.3274 12.5225 12.2725C13.5774 11.2176 15.0082 10.625 16.5 10.625C17.9918 10.625 19.4226 11.2176 20.4775 12.2725C21.5324 13.3274 22.125 14.7582 22.125 16.25C22.125 16.9887 21.9795 17.7201 21.6968 18.4026C21.4141 19.0851 20.9998 19.7051 20.4775 20.2275C19.9551 20.7498 19.3351 21.1641 18.6526 21.4468C17.9701 21.7295 17.2387 21.875 16.5 21.875ZM16.5 0.5C12.3228 0.5 8.31677 2.15937 5.36307 5.11307C2.40937 8.06677 0.75 12.0728 0.75 16.25C0.75 28.0625 16.5 45.5 16.5 45.5C16.5 45.5 32.25 28.0625 32.25 16.25C32.25 12.0728 30.5906 8.06677 27.6369 5.11307C24.6832 2.15937 20.6772 0.5 16.5 0.5Z" fill="black"/>
</svg>
