<svg width="130" height="138" viewBox="0 0 130 138" fill="none" xmlns="http://www.w3.org/2000/svg">
<path d="M125.31 73.082C127.731 77.6788 129.223 82.7076 129.7 87.8812C130.177 93.0548 129.63 98.2717 128.09 103.234C126.55 108.196 124.047 112.806 120.724 116.8C117.402 120.794 113.325 124.094 108.726 126.512L96.025 133.204L92.9019 134.847C90.0326 136.356 86.8547 137.187 83.6136 137.274C80.3725 137.36 77.1548 136.701 74.2088 135.347L24.6079 114.156L29.2786 100.299L58.777 105.997L43.5004 76.9687L18.9064 30.2373L30.8874 23.9341L55.4817 70.6791L61.3996 67.5664L50.5574 46.9499L62.5319 40.6502L73.3737 61.2667L79.2919 58.154L70.9201 42.2421L82.9013 35.9388L91.2732 51.8507L97.1944 48.711L91.4487 37.7604L103.426 31.4744L109.172 42.4246L125.307 73.0921L125.31 73.082ZM10.7512 36.5438C8.26228 34.0527 6.56714 30.8801 5.87976 27.4264C5.19238 23.9727 5.54359 20.3928 6.88904 17.1386C8.23449 13.8843 10.5139 11.1016 13.4395 9.14169C16.3651 7.18176 19.8057 6.1325 23.3271 6.12633C26.1808 6.12953 28.992 6.81717 31.5249 8.13155C34.0578 9.44593 36.2385 11.3487 37.884 13.6802C39.5294 16.0116 40.5917 18.7038 40.9815 21.5307C41.3713 24.3576 41.0774 27.2367 40.1243 29.9265L43.2676 35.8679C45.3702 32.3431 46.5019 28.3244 46.5477 24.2204C46.5935 20.1164 45.5518 16.0735 43.5284 12.5026C41.505 8.9318 38.5721 5.96044 35.028 3.89066C31.4838 1.82087 27.4548 0.72648 23.3506 0.71875C17.3363 0.719596 11.5569 3.05344 7.22846 7.22915C2.90007 11.4049 0.360261 17.0968 0.14352 23.1072C-0.0732219 29.1175 2.05 34.9776 6.06639 39.4543C10.0828 43.9309 15.6791 46.675 21.6777 47.109L18.5175 41.0997C15.5797 40.2749 12.9046 38.7057 10.7512 36.5438Z" fill="black"/>
</svg>
