<svg width="411" height="306" viewBox="0 0 411 306" fill="none" xmlns="http://www.w3.org/2000/svg">
<g clip-path="url(#clip0_67_174)">
<path d="M23.984 44.072H0.0385742L2.45578 32.0225H43.5861L44.568 33.0014C44.568 38.3108 31.2733 74.6853 21.6045 100.742C17.2611 112.566 15.5615 118.591 15.5615 123.637C15.5615 129.887 19.905 135.686 29.5737 135.686C35.3902 135.686 41.8864 129.436 54.7279 111.587L59.5621 113.997L43.6237 135.686C35.8812 146.041 31.5378 150.146 26.7033 152.556H21.8689C12.2001 152.556 3.96652 144.836 3.96652 133.766C3.96652 130.377 4.68414 125.331 5.89273 120.737L23.984 44.072Z" fill="black"/>
<path d="M157.91 90.3506C160.328 81.4265 163.462 74.6861 163.462 64.783C163.462 53.2229 154.775 44.0728 142.199 44.0728C127.469 44.0728 118.744 53.7125 103.523 92.271L79.8422 152.519H65.3391L91.9283 44.0728H54.4993L56.9165 32.0233H107.904L108.886 33.0022C108.886 37.822 86.1495 105.3 84.7144 109.178H87.6227L101.635 77.8492C116.591 44.2986 133.021 29.6133 153.793 29.6133C172.64 29.6133 180.874 42.642 180.874 53.7125C180.874 66.2514 176.266 75.6275 169.014 93.7395C160.781 113.998 159.119 118.102 159.119 123.637C159.119 129.888 161.045 135.687 170.714 135.687C176.53 135.687 183.027 129.436 195.868 111.588L200.702 113.998L184.764 135.687C177.021 146.042 172.678 150.146 167.843 152.556H163.009C153.34 152.556 147.524 144.837 147.524 133.767C147.524 130.378 148.241 125.332 149.45 120.738L157.91 90.3506Z" fill="black"/>
<path d="M20.0552 297.304C18.62 297.304 17.4114 297.792 16.2028 298.997L8.95121 306H7.96922L0 257.766L4.83439 255.355C5.55202 257.766 16.4294 298.733 56.5777 298.733C73.4981 298.733 80.7497 291.505 80.7497 279.455C80.7497 248.127 17.9024 255.355 17.9024 214.387C17.9024 192.698 37.24 180.648 55.6334 180.648C74.9711 180.648 79.3144 189.309 85.6219 189.309C87.0569 189.309 88.2656 188.819 89.4742 187.614L96.7258 180.61H97.7077L105.677 228.809L100.843 231.219C100.125 228.809 88.0392 187.84 58.0507 187.84C44.5295 187.84 34.8228 195.07 34.8228 209.529C34.8228 240.858 95.2528 236.038 95.2528 272.187C95.2528 295.344 75.9151 305.926 55.5957 305.926C33.1232 305.926 26.3249 297.264 20.0552 297.264V297.304Z" fill="black"/>
<path d="M142.39 195.106H118.444L120.861 183.057H161.954L162.936 184.036C162.936 189.345 149.641 225.719 139.972 251.777C135.629 263.6 133.929 269.626 133.929 274.67C133.929 280.921 138.273 286.72 147.942 286.72C153.758 286.72 160.254 280.469 173.096 262.622L177.93 265.031L161.992 286.72C154.249 297.074 149.906 301.181 145.071 303.589H140.237C130.568 303.589 122.334 295.87 122.334 284.8C122.334 281.412 123.052 276.365 124.261 271.77L142.39 195.106Z" fill="black"/>
<path d="M254.335 264.014L263.513 248.087L268.346 250.496L259.169 266.425C246.101 288.83 230.389 305.963 212.751 305.963C206.935 305.963 190.506 302.837 190.506 284.272C190.506 279.452 191.223 272.713 193.905 265.482L218.794 195.106H172.376L175.02 183.057H221.438L228.123 127.629H244.137L230.125 183.057H268.573L265.929 195.106H226.99L209.843 262.583C208.635 267.405 207.917 271.245 207.917 275.124C207.917 285.743 214.942 291.502 222.42 291.502C232.316 291.502 241.04 286.91 254.335 264.014Z" fill="black"/>
<path d="M406.167 262.582L411 264.993L395.062 286.682C387.32 297.037 382.976 301.141 378.142 303.552H373.306C363.639 303.552 357.821 295.833 357.821 284.76C357.821 280.92 358.54 277.532 360.241 272.712L377.16 226.434H374.251L360.241 257.763C345.245 291.275 328.815 305.96 308.004 305.96C289.16 305.96 280.925 292.933 280.925 281.86C280.925 269.322 284.776 260.662 291.576 241.834C296.184 229.295 302.226 213.857 309.215 195.067H256.905L259.548 183.018H320.772L321.754 183.997L303.397 245.223C300.754 254.148 298.337 263.298 298.337 270.79C298.337 282.351 307.288 291.502 319.601 291.502C334.33 291.502 343.055 281.86 358.277 243.303L381.957 183.055H396.46L376.631 264.539C375.649 268.154 374.214 273.69 374.214 279.489C374.214 284.308 376.631 286.719 380.975 286.719C386.791 286.719 393.288 280.468 406.13 262.619L406.167 262.582Z" fill="black"/>
<path d="M293.001 54.2899H298.775V51.4372C300.197 53.9124 302.917 54.8353 305.26 54.8353C310.615 54.8353 315.05 50.2206 315.05 43.0049C315.05 35.9151 310.699 31.2165 305.26 31.2165C302.415 31.2165 299.988 32.517 298.775 34.6146V23.875H293.001V54.2899ZM308.983 43.0469C308.983 47.4518 306.808 50.3884 303.837 50.3884C300.657 50.3884 298.565 47.6196 298.565 43.0049C298.565 38.4742 300.657 35.6634 303.837 35.6634C306.808 35.6634 308.983 38.642 308.983 43.0469ZM323.376 44.5991H339.985C340.236 36.6283 335.885 31.2165 328.94 31.2165C322.288 31.2165 317.644 36.2088 317.644 42.921C317.644 49.4235 321.869 54.8353 329.107 54.8353C335.216 54.8353 338.521 51.1016 339.734 47.7455H333.793C332.622 49.7172 330.823 50.3465 329.066 50.3465C326.346 50.3465 323.668 48.4586 323.376 44.5991ZM323.459 40.6137C323.919 36.838 326.723 35.4536 328.898 35.4536C331.325 35.4536 334.003 36.7961 334.128 40.6137H323.459ZM344.501 25.595V31.72H341.322V35.7054H344.501V48.2069C344.501 52.6958 345.506 54.2899 350.652 54.2899H354.877V50.1367H353.12C351.07 50.1367 350.275 49.6752 350.275 47.3679V35.7054H354.961V31.72H350.275V25.595H344.501ZM365.856 54.8353C369.245 54.8353 371.63 53.8285 373.22 51.4792C373.303 52.5699 373.429 53.5767 373.596 54.2899H378.91C378.491 52.4021 378.24 50.3884 378.24 46.8225C378.24 44.7669 378.324 41.7883 378.324 41.0752C378.324 33.44 373.973 31.1326 368.618 31.1326C362.844 31.1326 359.162 34.4049 358.744 38.8517H364.141C364.266 36.3766 366.107 35.2019 368.325 35.2019C370.668 35.2019 372.55 36.4185 372.55 39.9005V40.2781C363.723 41.2849 357.74 42.8791 357.74 48.2069C357.74 52.3182 361.547 54.8353 365.856 54.8353ZM372.718 43.9698V45.6479C372.718 48.9201 371.17 50.8918 367.572 50.8918C364.978 50.8918 363.681 49.5494 363.681 47.9133C363.681 45.3962 366.275 44.6411 372.718 43.9698Z" fill="black"/>
<path fill-rule="evenodd" clip-rule="evenodd" d="M258.413 40.83C258.413 18.2755 276.683 0 299.21 0H370.203C392.73 0 411 18.2755 411 40.83C411 63.3844 392.73 81.6598 370.203 81.6598H349.422L326.565 101.673V81.6598H299.21C276.683 81.6598 258.413 63.3844 258.413 40.83ZM299.21 4.93548C279.392 4.93548 263.335 21.0107 263.335 40.83C263.335 60.6492 279.392 76.7243 299.21 76.7243H331.487V90.8108L347.575 76.7243H370.203C390.021 76.7243 406.078 60.6492 406.078 40.83C406.078 21.0107 390.021 4.93548 370.203 4.93548H299.21Z" fill="black"/>
</g>
<defs>
<clipPath id="clip0_67_174">
<rect width="411" height="306" fill="white"/>
</clipPath>
</defs>
</svg>
